<svg width="25" height="24" viewBox="0 0 25 24" fill="none" xmlns="http://www.w3.org/2000/svg">
<g clip-path="url(#clip0_3309_2102)">
<path d="M22.7491 2H2.44137C1.95174 2 1.48216 2.19156 1.13594 2.53253C0.78972 2.87351 0.595215 3.33597 0.595215 3.81818V20.1818C0.595215 20.664 0.78972 21.1265 1.13594 21.4675C1.48216 21.8084 1.95174 22 2.44137 22H22.7491C23.2387 22 23.7083 21.8084 24.0545 21.4675C24.4007 21.1265 24.5952 20.664 24.5952 20.1818V3.81818C24.5952 3.33597 24.4007 2.87351 24.0545 2.53253C23.7083 2.19156 23.2387 2 22.7491 2ZM8.53368 14C8.72953 14.1447 8.85901 14.36 8.89363 14.5987C8.92825 14.8374 8.86518 15.0798 8.71829 15.2727C8.5714 15.4656 8.35273 15.5931 8.11037 15.6272C7.86802 15.6613 7.62184 15.5992 7.42598 15.4545L3.73368 12.7273C3.61903 12.6426 3.52598 12.5328 3.4619 12.4066C3.39781 12.2803 3.36445 12.1411 3.36445 12C3.36445 11.8589 3.39781 11.7197 3.4619 11.5934C3.52598 11.4672 3.61903 11.3574 3.73368 11.2727L7.42598 8.54545C7.62184 8.40079 7.86802 8.33868 8.11037 8.37277C8.35273 8.40687 8.5714 8.53439 8.71829 8.72727C8.86518 8.92016 8.92825 9.16261 8.89363 9.40129C8.85901 9.63998 8.72953 9.85534 8.53368 10L5.8256 12L8.53368 14ZM15.3287 5.88636L11.6364 18.6136C11.6049 18.7305 11.5501 18.8399 11.4752 18.9356C11.4002 19.0314 11.3067 19.1114 11.1999 19.1711C11.0932 19.2307 10.9755 19.2689 10.8536 19.2832C10.7318 19.2975 10.6082 19.2878 10.4903 19.2546C10.3723 19.2213 10.2622 19.1652 10.1665 19.0896C10.0708 19.014 9.99132 18.9203 9.9328 18.814C9.87427 18.7078 9.83785 18.5912 9.82565 18.4709C9.81345 18.3506 9.82572 18.2292 9.86175 18.1136L13.5541 5.38636C13.625 5.15879 13.7838 4.96771 13.9963 4.85419C14.2087 4.74066 14.458 4.71375 14.6904 4.77923C14.9228 4.84471 15.1198 4.99736 15.2392 5.20437C15.3585 5.41139 15.3907 5.65626 15.3287 5.88636ZM21.4568 12.7273L17.7644 15.4545C17.5686 15.5992 17.3224 15.6613 17.0801 15.6272C16.8377 15.5931 16.619 15.4656 16.4721 15.2727C16.3252 15.0798 16.2622 14.8374 16.2968 14.5987C16.3314 14.36 16.4609 14.1447 16.6568 14L19.3648 12L16.6568 10C16.5598 9.92837 16.4781 9.83863 16.4163 9.7359C16.3546 9.63318 16.3139 9.51948 16.2968 9.40129C16.2797 9.28311 16.2863 9.16276 16.3164 9.04711C16.3465 8.93146 16.3994 8.82278 16.4721 8.72727C16.5449 8.63177 16.636 8.5513 16.7403 8.49048C16.8446 8.42965 16.9601 8.38966 17.0801 8.37277C17.2001 8.35589 17.3223 8.36245 17.4397 8.39208C17.5571 8.42171 17.6675 8.47382 17.7644 8.54545L21.4568 11.2727C21.5714 11.3574 21.6644 11.4672 21.7285 11.5934C21.7926 11.7197 21.826 11.8589 21.826 12C21.826 12.1411 21.7926 12.2803 21.7285 12.4066C21.6644 12.5328 21.5714 12.6426 21.4568 12.7273Z" fill="#0252CD"/>
</g>
<defs>
<clipPath id="clip0_3309_2102">
<rect width="24" height="24" fill="white" transform="translate(0.595215)"/>
</clipPath>
</defs>
</svg>
