<svg width="25" height="24" viewBox="0 0 25 24" fill="none" xmlns="http://www.w3.org/2000/svg">
<path d="M21.5256 13.21C21.5667 13.0193 21.551 12.8207 21.4807 12.6388C21.4103 12.4568 21.2883 12.2994 21.1296 12.186L7.12959 2.18597C6.97205 2.07268 6.78493 2.00773 6.59108 1.99905C6.39723 1.99036 6.20505 2.03832 6.03801 2.13706C5.87097 2.2358 5.73631 2.38105 5.65046 2.55506C5.56461 2.72908 5.5313 2.92433 5.55459 3.11697L7.55459 20.117C7.57761 20.3119 7.65747 20.4957 7.78421 20.6455C7.91096 20.7953 8.07899 20.9046 8.26737 20.9596C8.45575 21.0146 8.65616 21.013 8.84362 20.9549C9.03108 20.8968 9.1973 20.7848 9.32159 20.633L12.9336 16.217L16.3106 21.677L18.0116 20.625L14.6546 15.197L20.7436 13.979C20.9349 13.9415 21.1111 13.8487 21.2501 13.7119C21.3891 13.5752 21.4849 13.4007 21.5256 13.21Z" fill="#0252CD"/>
</svg>
