<svg width="116" height="21" viewBox="0 0 116 21" fill="none" xmlns="http://www.w3.org/2000/svg">
<g clip-path="url(#clip0_3313_7400)">
<g clip-path="url(#clip1_3313_7400)">
<path d="M9.53834 2.10996C9.70914 1.69932 10.2909 1.69932 10.4617 2.10996L12.5278 7.07744C12.5998 7.25056 12.7626 7.36885 12.9495 7.38383L18.3123 7.81376C18.7556 7.8493 18.9354 8.40256 18.5976 8.69189L14.5117 12.1919C14.3693 12.3139 14.3071 12.5053 14.3506 12.6876L15.5989 17.9208C15.7021 18.3534 15.2315 18.6954 14.8519 18.4635L10.2606 15.6592C10.1006 15.5615 9.89938 15.5615 9.73937 15.6592L5.14806 18.4635C4.76851 18.6954 4.29788 18.3534 4.40108 17.9208L5.64939 12.6876C5.69289 12.5053 5.6307 12.3139 5.48831 12.1919L1.40241 8.69189C1.06464 8.40256 1.24441 7.8493 1.68773 7.81376L7.05054 7.38383C7.23744 7.36885 7.40024 7.25056 7.47225 7.07744L9.53834 2.10996Z" fill="#FFBE62"/>
</g>
</g>
<g clip-path="url(#clip2_3313_7400)">
<g clip-path="url(#clip3_3313_7400)">
<path d="M33.5383 2.10996C33.7091 1.69932 34.2909 1.69932 34.4617 2.10996L36.5278 7.07744C36.5998 7.25056 36.7626 7.36885 36.9495 7.38383L42.3123 7.81376C42.7556 7.8493 42.9354 8.40256 42.5976 8.69189L38.5117 12.1919C38.3693 12.3139 38.3071 12.5053 38.3506 12.6876L39.5989 17.9208C39.7021 18.3534 39.2315 18.6954 38.8519 18.4635L34.2606 15.6592C34.1006 15.5615 33.8994 15.5615 33.7394 15.6592L29.1481 18.4635C28.7685 18.6954 28.2979 18.3534 28.4011 17.9208L29.6494 12.6876C29.6929 12.5053 29.6307 12.3139 29.4883 12.1919L25.4024 8.69189C25.0646 8.40256 25.2444 7.8493 25.6877 7.81376L31.0505 7.38383C31.2374 7.36885 31.4002 7.25056 31.4722 7.07744L33.5383 2.10996Z" fill="#FFBE62"/>
</g>
</g>
<g clip-path="url(#clip4_3313_7400)">
<g clip-path="url(#clip5_3313_7400)">
<path d="M57.5383 2.10996C57.7091 1.69932 58.2909 1.69932 58.4617 2.10996L60.5278 7.07744C60.5998 7.25056 60.7626 7.36885 60.9495 7.38383L66.3123 7.81376C66.7556 7.8493 66.9354 8.40256 66.5976 8.69189L62.5117 12.1919C62.3693 12.3139 62.3071 12.5053 62.3506 12.6876L63.5989 17.9208C63.7021 18.3534 63.2315 18.6954 62.8519 18.4635L58.2606 15.6592C58.1006 15.5615 57.8994 15.5615 57.7394 15.6592L53.1481 18.4635C52.7685 18.6954 52.2979 18.3534 52.4011 17.9208L53.6494 12.6876C53.6929 12.5053 53.6307 12.3139 53.4883 12.1919L49.4024 8.69189C49.0646 8.40256 49.2444 7.8493 49.6877 7.81376L55.0505 7.38383C55.2374 7.36885 55.4002 7.25056 55.4722 7.07744L57.5383 2.10996Z" fill="#FFBE62"/>
</g>
</g>
<g clip-path="url(#clip6_3313_7400)">
<g clip-path="url(#clip7_3313_7400)">
<path d="M81.5383 2.10996C81.7091 1.69932 82.2909 1.69932 82.4617 2.10996L84.5278 7.07744C84.5998 7.25056 84.7626 7.36885 84.9495 7.38383L90.3123 7.81376C90.7556 7.8493 90.9354 8.40256 90.5976 8.69189L86.5117 12.1919C86.3693 12.3139 86.3071 12.5053 86.3506 12.6876L87.5989 17.9208C87.7021 18.3534 87.2315 18.6954 86.8519 18.4635L82.2606 15.6592C82.1006 15.5615 81.8994 15.5615 81.7394 15.6592L77.1481 18.4635C76.7685 18.6954 76.2979 18.3534 76.4011 17.9208L77.6494 12.6876C77.6929 12.5053 77.6307 12.3139 77.4883 12.1919L73.4024 8.69189C73.0646 8.40256 73.2444 7.8493 73.6877 7.81376L79.0505 7.38383C79.2374 7.36885 79.4002 7.25056 79.4722 7.07744L81.5383 2.10996Z" fill="#FFBE62"/>
</g>
</g>
<g clip-path="url(#clip8_3313_7400)">
<g clip-path="url(#clip9_3313_7400)">
<path d="M105.538 2.10996C105.709 1.69932 106.291 1.69932 106.462 2.10996L108.528 7.07744C108.6 7.25056 108.763 7.36885 108.949 7.38383L114.312 7.81376C114.756 7.8493 114.935 8.40256 114.598 8.69189L110.512 12.1919C110.369 12.3139 110.307 12.5053 110.351 12.6876L111.599 17.9208C111.702 18.3534 111.231 18.6954 110.852 18.4635L106.261 15.6592C106.101 15.5615 105.899 15.5615 105.739 15.6592L101.148 18.4635C100.769 18.6954 100.298 18.3534 100.401 17.9208L101.649 12.6876C101.693 12.5053 101.631 12.3139 101.488 12.1919L97.4024 8.69189C97.0646 8.40256 97.2444 7.8493 97.6877 7.81376L103.051 7.38383C103.237 7.36885 103.4 7.25056 103.472 7.07744L105.538 2.10996Z" fill="#FFBE62"/>
</g>
</g>
<defs>
<clipPath id="clip0_3313_7400">
<rect width="20" height="20" fill="white" transform="translate(0 0.5)"/>
</clipPath>
<clipPath id="clip1_3313_7400">
<rect width="20" height="20" fill="white" transform="translate(0 0.5)"/>
</clipPath>
<clipPath id="clip2_3313_7400">
<rect width="20" height="20" fill="white" transform="translate(24 0.5)"/>
</clipPath>
<clipPath id="clip3_3313_7400">
<rect width="20" height="20" fill="white" transform="translate(24 0.5)"/>
</clipPath>
<clipPath id="clip4_3313_7400">
<rect width="20" height="20" fill="white" transform="translate(48 0.5)"/>
</clipPath>
<clipPath id="clip5_3313_7400">
<rect width="20" height="20" fill="white" transform="translate(48 0.5)"/>
</clipPath>
<clipPath id="clip6_3313_7400">
<rect width="20" height="20" fill="white" transform="translate(72 0.5)"/>
</clipPath>
<clipPath id="clip7_3313_7400">
<rect width="20" height="20" fill="white" transform="translate(72 0.5)"/>
</clipPath>
<clipPath id="clip8_3313_7400">
<rect width="20" height="20" fill="white" transform="translate(96 0.5)"/>
</clipPath>
<clipPath id="clip9_3313_7400">
<rect width="20" height="20" fill="white" transform="translate(96 0.5)"/>
</clipPath>
</defs>
</svg>
