<svg width="25" height="24" viewBox="0 0 25 24" fill="none" xmlns="http://www.w3.org/2000/svg">
<path d="M3.49989 17.25V21H7.24989L18.3099 9.93001L14.5599 6.18001L3.49989 17.25ZM23.1099 18.36L18.8599 22.61L13.6599 17.41L15.4299 15.64L16.4299 16.64L18.8999 14.16L20.3199 15.58L18.8599 17L19.9199 18L21.3399 16.6L23.1099 18.36ZM7.10989 10.83L1.88989 5.64001L6.13989 1.39001L7.89989 3.16001L5.42989 5.64001L6.49989 6.70001L8.95989 4.22001L10.3799 5.64001L8.95989 7.05001L9.95989 8.05001L7.10989 10.83ZM21.2099 7.00001C21.5999 6.61001 21.5999 6.00001 21.2099 5.59001L18.8699 3.29001C18.4999 2.90001 17.8499 2.90001 17.4599 3.29001L15.6199 5.12001L19.3699 8.87001L21.2099 7.00001Z" fill="#0252CD"/>
</svg>
