<svg width="31" height="24" viewBox="0 0 31 24" fill="none" xmlns="http://www.w3.org/2000/svg">
<path d="M12.8171 17.25C13.4171 17.85 14.1921 18.144 15.1421 18.132C16.0921 18.12 16.7921 17.776 17.2421 17.1L25.6421 4.5L13.0421 12.9C12.3671 13.35 12.0111 14.0375 11.9741 14.9625C11.9371 15.8875 12.2181 16.65 12.8171 17.25ZM15.1421 1.90114e-06C16.6171 1.90114e-06 18.0361 0.206502 19.3991 0.619502C20.7621 1.0325 22.0431 1.651 23.2421 2.475L20.3921 4.275C19.5671 3.85 18.7111 3.5315 17.8241 3.3195C16.9371 3.1075 16.0431 3.001 15.1421 3C11.8171 3 8.98559 4.1685 6.64759 6.5055C4.30959 8.8425 3.14109 11.674 3.14209 15C3.14209 16.05 3.28609 17.0875 3.57409 18.1125C3.86209 19.1375 4.26809 20.1 4.79209 21H25.4921C26.0671 20.05 26.4861 19.0625 26.7491 18.0375C27.0121 17.0125 27.1431 15.95 27.1421 14.85C27.1421 13.95 27.0356 13.075 26.8226 12.225C26.6096 11.375 26.2911 10.55 25.8671 9.75L27.6671 6.9C28.4171 8.075 29.0111 9.325 29.4491 10.65C29.8871 11.975 30.1181 13.35 30.1421 14.775C30.1671 16.2 30.0046 17.5625 29.6546 18.8625C29.3046 20.1625 28.7921 21.4 28.1171 22.575C27.8421 23.025 27.4671 23.375 26.9921 23.625C26.5171 23.875 26.0171 24 25.4921 24H4.79209C4.26709 24 3.76709 23.875 3.29209 23.625C2.81709 23.375 2.44209 23.025 2.16709 22.575C1.51709 21.45 1.01709 20.256 0.66709 18.993C0.31709 17.73 0.14209 16.399 0.14209 15C0.14209 12.925 0.53609 10.981 1.32409 9.168C2.11209 7.355 3.18709 5.768 4.54909 4.407C5.91109 3.044 7.50409 1.9685 9.32809 1.1805C11.1521 0.392502 13.0901 -0.000998099 15.1421 1.90114e-06Z" fill="#0252CD"/>
</svg>
